<?xml version="1.0" standalone="no"?>
<!DOCTYPE svg PUBLIC "-//W3C//DTD SVG 20010904//EN"
 "http://www.w3.org/TR/2001/REC-SVG-20010904/DTD/svg10.dtd">
<svg version="1.0" xmlns="http://www.w3.org/2000/svg"
 width="640.000000pt" height="427.000000pt" viewBox="0 0 640.000000 427.000000"
 preserveAspectRatio="xMidYMid meet">

<g transform="translate(0.000000,427.000000) scale(0.100000,-0.100000)"
fill="#000000" stroke="none">
<path d="M143 4097 l-143 -32 0 -57 0 -58 26 10 c39 15 91 12 132 -9 56 -27
113 -33 162 -16 23 8 46 12 51 9 6 -3 24 -36 41 -74 19 -42 40 -72 54 -79 13
-6 25 -7 27 -3 13 23 28 149 23 187 l-7 45 -73 -7 c-67 -5 -73 -4 -78 14 -3
11 1 28 8 38 21 29 17 42 -17 54 -42 14 -40 14 -206 -22z"/>
<path d="M432 3667 c-50 -42 -55 -44 -149 -55 -54 -6 -140 -17 -190 -23 l-93
-13 0 -74 c0 -72 1 -74 22 -68 13 4 106 11 207 17 161 9 186 8 201 -6 51 -47
79 3 81 144 1 127 -9 138 -79 78z"/>
<path d="M3511 3098 c-50 -13 -100 -49 -203 -142 -99 -88 -152 -123 -163 -105
-5 7 -11 6 -21 -2 -11 -9 -14 -8 -14 6 0 13 -4 15 -12 8 -18 -14 -58 -23 -58
-12 0 18 -29 -3 -33 -24 -4 -22 -4 -22 -6 1 l-1 22 -22 -22 c-19 -19 -20 -22
-5 -33 21 -15 22 -55 2 -55 -9 0 -18 -7 -21 -15 -8 -19 -24 -20 -24 -1 0 7 9
16 20 19 11 3 20 10 20 15 0 7 -11 8 -30 2 -42 -12 -50 -19 -50 -40 0 -10 -5
-22 -11 -26 -8 -4 -9 1 -4 17 7 20 6 21 -7 8 -8 -8 -17 -21 -21 -29 -4 -11 -6
-11 -6 -2 -1 7 4 22 10 33 8 16 7 20 -3 18 -25 -3 -38 1 -38 12 0 5 5 7 10 4
14 -9 12 8 -2 24 -11 11 -10 13 4 8 9 -3 19 0 22 9 4 10 2 12 -6 8 -7 -5 -9
-2 -5 8 4 11 -1 16 -16 16 -12 0 -46 2 -74 4 -29 2 -53 -1 -53 -6 0 -4 -9 -6
-19 -3 -37 9 -43 -8 -16 -47 37 -55 59 -100 44 -90 -9 5 -10 2 -6 -10 4 -10 3
-15 -3 -11 -7 4 -9 -3 -6 -19 l5 -26 -30 20 c-31 22 -37 32 -16 25 6 -3 18 -1
26 4 12 8 12 13 -3 36 -35 53 -130 151 -182 186 -47 33 -172 84 -181 75 -2 -2
13 -38 33 -80 26 -54 40 -74 47 -67 6 6 18 11 27 11 13 -1 13 -2 0 -13 -17
-14 -17 -65 0 -96 8 -16 17 -20 33 -16 22 5 22 5 0 -6 -30 -15 -29 -39 2 -97
29 -54 30 -65 11 -81 -8 -7 -17 -27 -20 -45 -4 -19 -13 -39 -21 -46 -8 -7 -15
-22 -15 -34 0 -15 -3 -17 -9 -8 -7 11 -9 10 -15 -3 -3 -9 -10 -13 -16 -10 -5
3 -11 0 -11 -7 -2 -23 -5 -32 -18 -63 -14 -34 -21 -154 -9 -161 5 -3 6 -20 4
-39 -7 -55 12 -62 90 -31 37 15 69 25 71 22 3 -3 -7 -8 -22 -12 -20 -5 -24 -9
-13 -16 10 -8 9 -9 -4 -5 -9 3 -18 3 -20 -1 -2 -4 -38 -25 -81 -47 -88 -45
-137 -88 -179 -157 -33 -54 -42 -61 -27 -22 8 23 8 25 -5 15 -8 -7 -19 -10
-24 -7 -5 3 -21 -2 -37 -10 -16 -8 -34 -13 -40 -10 -7 2 -18 -5 -26 -16 -8
-11 -30 -26 -49 -34 -28 -12 -32 -17 -20 -25 12 -8 10 -9 -7 -4 -14 4 -23 2
-23 -4 0 -6 -14 -11 -31 -11 -27 0 -31 -3 -26 -21 4 -14 2 -19 -8 -15 -17 6
-23 -10 -19 -51 1 -20 -2 -31 -8 -27 -22 14 -26 -20 -5 -37 19 -15 19 -18 5
-19 -9 0 -29 5 -44 10 -21 9 -29 7 -40 -7 -19 -26 -18 -31 18 -50 32 -17 32
-18 9 -21 -13 -2 -28 1 -34 7 -17 17 -27 13 -24 -11 1 -17 -3 -23 -15 -22 -40
3 -5 -14 41 -20 39 -5 49 -10 46 -24 -2 -9 -4 -20 -4 -23 -1 -3 -29 -7 -63 -8
-93 -3 -91 -12 7 -27 31 -5 41 -9 27 -12 -12 -2 -20 -7 -18 -11 3 -4 -20 -8
-51 -9 -95 -2 -116 -46 -33 -67 45 -12 59 -19 55 -26 -3 -4 -17 -4 -31 1 -14
6 -35 10 -47 10 -18 0 -19 -2 -7 -10 13 -9 13 -10 0 -10 -13 0 -13 -1 0 -10
19 -12 13 -12 -28 -1 -36 11 -40 6 -15 -22 17 -19 17 -20 -2 -11 -11 5 -27 9
-35 8 -8 -1 -25 -2 -38 -3 -18 -1 -21 -4 -14 -17 11 -19 4 -54 -10 -54 -5 0
-7 4 -4 9 11 17 -23 20 -51 6 -15 -8 -35 -15 -44 -15 -36 0 -60 -66 -45 -122
12 -44 -1 -61 -42 -55 -12 3 -24 1 -27 -3 -9 -14 164 -21 573 -20 229 0 493
-5 586 -12 128 -9 173 -9 187 0 13 8 72 10 199 7 109 -3 180 -1 180 4 0 6 -74
11 -175 13 -160 3 -175 5 -189 23 -23 30 -19 51 19 108 19 28 35 56 35 60 0 5
-15 7 -34 6 -19 -2 -40 1 -47 7 -17 13 -50 28 -65 29 -18 1 -44 26 -44 42 0 9
-6 13 -14 10 -7 -3 -18 -1 -23 4 -6 6 -24 11 -42 11 -17 1 -31 4 -31 9 0 4
-10 5 -22 2 -21 -5 -21 -4 -8 10 15 15 99 47 124 47 7 0 29 11 49 24 20 14 37
21 39 16 2 -5 21 -1 43 9 22 10 54 24 72 32 17 7 37 24 43 37 13 30 4 63 -16
55 -8 -3 -14 1 -14 11 0 9 -4 16 -10 16 -5 0 -10 12 -10 26 0 14 -4 23 -10 19
-6 -4 -6 4 1 19 7 15 8 35 3 53 -11 38 -11 75 0 90 5 8 3 25 -4 42 -6 17 -9
34 -6 39 3 6 0 12 -8 15 -19 8 -18 64 2 72 12 5 13 8 4 14 -15 9 -5 40 32 99
23 37 28 40 60 35 21 -3 36 0 36 5 0 20 -12 42 -24 42 -7 0 -11 21 -11 59 0
33 2 59 5 58 3 -1 15 8 28 21 l23 23 45 -26 46 -27 22 21 c28 27 56 27 90 0
18 -14 25 -27 21 -39 -3 -10 -1 -21 5 -25 6 -3 8 -11 5 -16 -4 -5 1 -12 9 -15
19 -7 21 -30 4 -38 -9 -3 -6 -11 10 -25 30 -27 89 -26 87 0 -1 10 -5 22 -10
26 -4 5 -4 1 0 -7 8 -13 7 -13 -8 -1 -21 17 -21 16 2 18 10 1 29 -10 42 -25
13 -14 16 -20 7 -13 -10 7 -18 10 -18 5 1 -5 16 -20 34 -34 19 -14 46 -41 62
-60 l28 -35 -30 28 c-17 15 -33 27 -37 27 -11 0 -8 -38 3 -45 6 -3 10 -17 10
-30 0 -27 14 -34 55 -28 17 3 43 5 58 4 17 0 25 4 21 10 -4 7 0 7 12 0 11 -7
33 -20 49 -30 17 -10 36 -16 44 -13 10 4 13 1 9 -10 -4 -10 -1 -15 9 -14 9 0
18 -4 20 -11 3 -8 -3 -11 -16 -8 -30 6 -26 -12 7 -29 15 -8 24 -15 19 -16 -4
0 0 -11 9 -25 15 -23 15 -25 0 -31 -15 -6 -15 -8 -1 -24 13 -15 14 -19 1 -29
-11 -9 -15 -9 -19 1 -2 7 -7 10 -11 6 -4 -3 -2 -16 4 -28 15 -28 9 -33 -24
-20 -26 10 -26 9 -10 -15 10 -15 12 -25 5 -25 -6 0 -11 -7 -11 -15 0 -11 -5
-12 -23 -6 -27 10 -49 -8 -36 -31 13 -23 -5 -103 -22 -93 -12 8 -12 -7 1 -40
7 -17 7 -24 0 -20 -6 3 -10 1 -10 -6 0 -8 -5 -7 -17 2 -15 13 -16 10 -10 -33
9 -63 -5 -76 -72 -70 -34 3 -68 -2 -103 -14 -39 -15 -52 -16 -55 -6 -7 18 -31
15 -69 -9 -20 -12 -34 -16 -34 -9 0 6 -4 8 -10 5 -18 -11 -10 -25 15 -25 19 0
24 -5 22 -20 -2 -11 -6 -22 -9 -26 -4 -3 9 -30 28 -59 19 -30 34 -58 34 -63 0
-5 8 -17 19 -26 21 -19 52 -15 111 15 90 45 110 30 48 -37 l-43 -46 -65 5
c-75 6 -160 -2 -160 -14 0 -5 46 -9 103 -10 100 0 243 -8 522 -28 195 -14 516
-21 482 -11 -50 15 -59 29 -54 81 3 26 17 69 30 96 55 104 71 149 75 217 3 49
1 67 -7 62 -6 -4 -11 -23 -11 -43 0 -47 -10 -37 -12 11 -1 34 -18 54 -18 21 0
-25 -17 -17 -24 11 -4 15 -1 38 9 56 8 17 15 36 15 41 0 6 8 19 18 30 16 19
16 20 0 14 -10 -4 -18 -2 -18 2 0 5 7 12 16 15 23 9 57 94 50 127 -3 17 -1 29
5 29 5 0 14 10 19 23 8 21 9 20 10 -8 1 -16 1 -45 0 -62 -1 -18 1 -33 4 -33 3
0 15 17 28 38 13 20 30 38 38 40 8 1 25 8 37 14 18 9 20 14 12 25 -9 10 -8 13
4 13 9 0 22 8 29 18 9 14 31 21 78 25 36 4 76 9 90 12 52 13 110 16 110 7 0
-5 -9 -12 -21 -15 -12 -3 -18 -10 -15 -15 3 -6 15 -8 26 -5 14 4 20 0 20 -11
0 -9 4 -16 8 -16 9 0 44 -26 75 -57 12 -11 16 -26 12 -40 -5 -20 -2 -23 24
-23 23 0 46 -14 96 -62 35 -34 67 -70 71 -80 3 -10 9 -16 13 -14 11 7 24 -6
45 -43 15 -27 16 -35 5 -42 -8 -5 -16 -3 -21 4 -12 20 -22 -2 -10 -25 6 -13
11 -17 11 -10 2 29 20 8 40 -47 12 -32 28 -62 36 -65 8 -3 15 -16 15 -30 0
-15 13 -35 34 -54 19 -17 32 -32 29 -35 -2 -3 5 -33 17 -66 24 -64 21 -111 -5
-111 -8 0 -15 -4 -15 -10 0 -14 -58 -11 -105 5 -22 8 -48 15 -58 15 -9 0 -25
9 -34 19 -9 11 -20 18 -25 15 -11 -7 -58 23 -58 36 0 6 6 10 14 10 8 0 18 5
22 12 4 6 3 9 -2 7 -5 -3 -22 -11 -37 -19 -25 -12 -30 -12 -38 0 -5 8 -6 28
-3 43 4 20 1 32 -11 40 -16 13 -12 47 6 47 5 0 9 9 9 21 0 16 -4 19 -20 14
-11 -3 -20 -2 -20 4 0 5 9 13 20 16 20 6 28 35 10 35 -5 0 -13 18 -16 41 -7
43 -59 115 -98 136 -12 6 -48 13 -79 15 -44 3 -57 1 -57 -10 0 -9 -7 -13 -20
-9 -11 3 -43 -1 -70 -8 -28 -7 -50 -10 -50 -7 0 4 -7 -3 -15 -15 -8 -12 -23
-22 -33 -22 -44 -2 -55 -6 -69 -28 -9 -13 -16 -47 -17 -76 0 -53 15 -85 66
-141 26 -28 22 -36 -12 -30 -32 7 -35 0 -33 -71 0 -11 -6 -24 -14 -28 -7 -5
-11 -13 -7 -18 12 -21 -28 -49 -70 -49 -65 0 -78 -17 -20 -26 67 -10 673 -11
1104 -1 195 5 372 8 393 8 26 -1 37 3 37 13 0 9 7 12 20 9 11 -3 20 0 20 6 0
6 -6 11 -14 11 -8 0 -18 5 -22 12 -5 8 -2 9 9 5 21 -8 22 6 2 23 -8 7 -15 17
-15 23 0 5 -15 22 -33 38 -22 19 -33 38 -35 60 -1 17 -7 39 -12 49 -13 25 -13
33 2 24 8 -5 9 -2 4 12 -4 10 -10 33 -12 49 -4 21 2 14 20 -25 15 -35 30 -54
40 -54 9 1 13 -2 10 -7 -3 -5 11 -30 30 -55 36 -46 51 -50 20 -5 -9 13 -22 42
-29 65 -7 22 -16 49 -21 60 -6 16 -5 17 16 6 21 -11 22 -10 16 6 -11 27 -35
168 -30 173 2 3 18 -28 36 -67 17 -39 35 -69 40 -66 5 3 5 10 2 16 -4 6 -2 8
4 5 5 -4 9 -18 8 -32 -2 -13 0 -22 5 -20 4 3 10 -3 13 -12 3 -10 14 -23 25
-30 18 -11 18 -10 6 37 -11 43 -11 48 3 43 12 -5 14 -1 8 23 -9 34 -33 74 -45
74 -9 0 -21 31 -25 60 -10 83 -20 143 -31 183 -8 26 -12 54 -8 62 7 19 -26
153 -39 161 -6 4 -8 -1 -4 -12 3 -11 10 -41 15 -69 5 -27 13 -58 17 -69 6 -16
4 -17 -13 -8 -19 11 -20 8 -17 -56 3 -46 1 -62 -6 -52 -5 8 -10 31 -11 50 0
19 -5 46 -9 60 -6 18 -8 8 -8 -38 1 -91 -8 -86 -15 9 -4 48 -13 92 -23 106 -8
14 -13 27 -10 31 3 3 6 0 6 -6 0 -7 4 -12 9 -12 11 0 0 42 -23 85 -9 17 -16
42 -16 56 0 15 -7 33 -16 40 -15 12 -16 11 -9 -11 10 -30 12 -170 3 -164 -4 2
-9 -5 -13 -16 -3 -11 -13 -20 -21 -20 -23 0 -27 -25 -14 -98 14 -78 28 -121
46 -142 9 -10 10 -20 4 -30 -8 -12 -10 -12 -10 4 0 11 -10 30 -21 42 -12 13
-24 38 -28 56 -8 41 -24 43 -32 3 -4 -20 -7 -4 -8 45 -1 41 -5 152 -9 245 -6
149 -10 175 -29 210 -13 22 -34 65 -48 96 -34 75 -146 189 -209 212 -17 7 -17
6 -5 -9 13 -16 12 -16 -9 -5 -13 7 -28 10 -35 8 -7 -3 3 -10 21 -17 20 -7 31
-18 28 -25 -2 -7 0 -17 6 -23 8 -8 4 -9 -13 -5 -23 5 -22 4 6 -21 17 -14 26
-25 21 -26 -5 0 -2 -8 5 -17 8 -9 9 -14 3 -10 -13 7 -76 -15 -75 -27 0 -3 9
-16 20 -27 11 -12 17 -28 14 -37 -4 -10 -2 -13 5 -8 7 4 12 1 12 -8 0 -9 5
-16 11 -16 6 0 17 -7 25 -15 9 -8 12 -15 8 -15 -5 0 -3 -5 4 -12 20 -20 14
-28 -12 -18 -36 13 -53 -11 -26 -35 20 -18 28 -51 10 -40 -6 4 -8 11 -5 16 4
5 -2 9 -11 9 -9 0 -32 11 -50 25 -18 14 -39 25 -47 25 -8 0 -25 8 -38 19 -13
10 -39 22 -57 26 -42 9 -53 34 -24 53 12 8 22 20 22 27 0 8 6 16 13 18 28 12
-71 4 -103 -7 -30 -11 -35 -17 -36 -47 -3 -80 -2 -79 -26 -71 -13 5 -39 7 -59
5 -43 -4 -70 21 -74 68 -3 37 -27 56 -45 34 -6 -8 -9 -19 -5 -25 3 -5 1 -10
-4 -10 -6 0 -11 9 -11 19 0 25 -16 36 -24 16 -3 -8 -12 -12 -20 -9 -9 4 -16
-2 -19 -18 l-4 -23 -2 23 c0 12 -5 22 -11 22 -5 0 -9 -6 -7 -12 1 -7 -5 -13
-13 -13 -8 0 -14 6 -12 13 1 8 -3 12 -10 10 -7 -3 -13 -11 -13 -18 0 -7 -6
-15 -14 -18 -10 -3 -12 2 -7 22 3 14 2 26 -3 26 -5 0 -8 7 -7 16 0 9 -4 19
-11 21 -7 3 -11 -8 -10 -29 2 -28 -1 -33 -19 -31 -17 2 -21 -3 -21 -22 0 -14
3 -22 8 -20 4 3 13 -3 19 -12 10 -15 11 -15 6 -1 -2 9 2 24 9 35 14 17 14 17
15 -4 0 -16 4 -21 15 -17 20 8 19 -6 -4 -35 -10 -13 -30 -25 -43 -27 -20 -2
-28 5 -42 37 -10 21 -15 43 -11 48 3 6 -3 15 -14 20 -14 8 -21 8 -24 -2 -4 -9
-6 -9 -6 1 -1 14 -61 76 -61 64 0 -4 9 -22 20 -40 26 -42 25 -43 -6 -32 -14 6
-27 10 -30 10 -9 0 -3 -39 6 -45 7 -4 1 -16 -15 -30 -14 -13 -25 -31 -25 -40
0 -8 -6 -15 -14 -15 -7 0 -19 -7 -26 -15 -7 -8 -23 -14 -35 -13 -18 2 -25 10
-30 36 -3 18 -3 42 0 52 7 23 2 24 -26 10 -14 -8 -18 -17 -13 -34 4 -19 -2
-31 -27 -55 -17 -17 -36 -31 -40 -31 -5 0 -9 -7 -9 -15 0 -8 -7 -15 -15 -15
-8 0 -22 -11 -31 -26 -12 -18 -24 -24 -43 -22 -22 3 -25 7 -23 31 2 15 10 40
18 55 19 37 18 45 -7 37 -15 -5 -19 -4 -15 4 4 6 3 11 -2 11 -12 0 8 61 27 84
12 14 12 16 -4 10 -13 -5 -16 -4 -11 4 15 24 -5 32 -36 15 -38 -23 -90 -81
-83 -93 6 -10 -20 -66 -39 -85 -6 -7 -16 -10 -22 -8 -10 3 -29 -50 -25 -71 1
-4 -2 -13 -7 -20 -5 -6 -13 -29 -17 -51 -4 -22 -9 -49 -11 -60 -2 -11 0 -44 5
-73 9 -60 0 -58 -17 4 -15 50 -15 97 -2 144 6 23 6 48 1 68 -5 17 -6 34 -1 37
12 7 10 75 -2 75 -6 0 -7 7 -4 16 4 9 1 23 -5 31 -7 8 -12 35 -12 61 1 29 -5
54 -15 65 -11 12 -12 17 -2 17 8 0 9 4 3 13 -5 6 -8 22 -7 35 0 12 -3 22 -8
22 -5 0 -6 5 -3 10 4 6 1 18 -6 26 -18 22 -18 64 0 64 11 0 9 5 -6 23 -11 12
-19 27 -16 33 2 6 -8 19 -22 28 -15 10 -24 23 -22 30 5 13 -90 72 -100 62 -4
-3 -1 -6 6 -6 7 0 9 -4 6 -10 -9 -15 -19 -12 -34 11 -11 18 -11 23 1 30 10 7
10 9 1 9 -7 0 -13 9 -13 20 0 23 4 24 31 9 15 -7 24 -7 34 1 7 6 17 10 21 9 5
-1 21 -1 36 0 20 1 26 5 22 16 -4 8 -1 15 6 15 6 0 9 4 5 9 -3 5 -1 12 4 15 5
3 7 24 4 46 -4 25 -1 46 7 55 7 8 16 32 21 53 4 20 13 57 18 82 23 101 4 212
-38 222 -9 3 -31 1 -50 -4z m70 -100 c9 -88 1 -114 -40 -123 -17 -4 -29 -11
-25 -16 8 -14 -23 -22 -43 -10 -17 10 -17 10 0 11 9 0 17 5 17 11 0 5 -5 7
-12 3 -8 -5 -9 -2 -5 9 4 10 1 17 -6 18 -7 0 -1 5 13 10 20 8 22 12 10 19 -12
8 -10 10 8 10 12 0 23 6 24 13 0 6 2 17 2 22 3 21 18 35 37 35 10 0 20 -6 20
-12z m-1188 -128 c3 -13 0 -20 -8 -20 -17 0 -28 17 -20 30 10 16 22 12 28 -10z
m1139 -62 c-6 -6 -16 -7 -22 -3 -9 6 -9 9 1 16 17 10 34 0 21 -13z m-807 -60
c0 -25 -4 -44 -9 -41 -4 3 -6 20 -3 38 3 18 0 38 -6 45 -9 10 -9 11 3 8 10 -3
15 -19 15 -50z m65 -22 c-6 -8 -18 -12 -26 -9 -23 9 -16 23 12 23 22 0 24 -2
14 -14z m-233 -12 c-3 -3 -12 -4 -19 -1 -8 3 -5 6 6 6 11 1 17 -2 13 -5z m68
-14 c3 -6 -1 -7 -9 -4 -18 7 -21 14 -7 14 6 0 13 -4 16 -10z m173 -45 c-3 -3
-9 2 -12 12 -6 14 -5 15 5 6 7 -7 10 -15 7 -18z m-35 -5 c3 -11 1 -18 -4 -14
-5 3 -9 12 -9 20 0 20 7 17 13 -6z m421 -171 c-8 -14 -34 -10 -34 5 0 9 7 12
20 9 11 -3 17 -9 14 -14z m-520 -6 c3 -10 9 -24 12 -30 8 -18 -31 -16 -46 2
-15 18 -6 45 14 45 7 0 16 -8 20 -17z m456 -8 c0 -18 -5 -25 -19 -25 -11 0
-22 4 -25 8 -8 13 11 35 23 28 6 -4 11 -2 11 3 0 6 2 11 5 11 3 0 5 -11 5 -25z
m325 15 c-3 -5 -12 -10 -18 -10 -7 0 -6 4 3 10 19 12 23 12 15 0z m-715 -30
c0 -5 -2 -10 -4 -10 -3 0 -8 5 -11 10 -3 6 -1 10 4 10 6 0 11 -4 11 -10z m101
-109 c-10 -7 -11 -13 -1 -31 10 -18 9 -24 -7 -36 -27 -21 -32 -17 -23 20 9 42
18 56 33 56 8 0 8 -3 -2 -9z m385 -181 c15 -6 25 -13 22 -15 -3 -3 -22 1 -44
9 -21 8 -31 15 -22 15 9 1 29 -4 44 -9z m-582 -32 c-10 -12 -14 -18 -7 -15 19
12 27 -15 8 -29 -13 -10 -20 -10 -30 -1 -11 10 -11 16 0 33 13 20 12 21 -7 16
-14 -3 -19 -1 -14 6 4 7 21 12 38 12 31 0 31 0 12 -22z m657 -65 c65 -31 117
-58 115 -60 -3 -3 -247 105 -255 113 -17 17 40 -5 140 -53z m-16 39 c-3 -3
-11 0 -18 7 -9 10 -8 11 6 5 10 -3 15 -9 12 -12z m-715 -27 c0 -2 -13 -11 -30
-20 -38 -19 -40 -11 -2 9 31 17 32 18 32 11z m1810 -5 c0 -5 -2 -10 -4 -10 -3
0 -8 5 -11 10 -3 6 -1 10 4 10 6 0 11 -4 11 -10z m-1677 -14 c3 -8 -9 -26 -26
-42 -17 -16 -24 -20 -14 -8 9 11 17 24 17 27 0 10 -36 3 -52 -10 -7 -5 -38
-27 -68 -48 -30 -21 -71 -50 -90 -63 -69 -50 2 15 95 87 89 68 128 84 138 57z
m537 -32 c0 -3 -13 4 -30 16 -16 12 -30 24 -30 26 0 3 14 -4 30 -16 17 -12 30
-24 30 -26z m-650 22 c0 -2 -8 -10 -17 -17 -16 -13 -17 -12 -4 4 13 16 21 21
21 13z m-130 -36 c-31 -23 -109 -67 -95 -53 12 12 108 73 115 73 3 0 -6 -9
-20 -20z m761 3 c13 -15 12 -15 -8 -4 -24 12 -29 21 -14 21 5 0 15 -7 22 -17z
m294 -33 c10 -11 16 -20 13 -20 -3 0 -13 9 -23 20 -10 11 -16 20 -13 20 3 0
13 -9 23 -20z m95 -11 c0 -3 11 -5 25 -4 14 2 25 -1 25 -7 0 -5 -9 -6 -21 -3
-15 5 -19 4 -14 -4 5 -8 -2 -10 -22 -5 -35 8 -42 14 -18 14 17 0 17 1 -1 21
-19 22 -19 22 4 8 12 -8 22 -17 22 -20z m-339 4 c13 -16 12 -17 -3 -4 -17 13
-22 21 -14 21 2 0 10 -8 17 -17z m194 7 c3 -6 -1 -7 -9 -4 -18 7 -21 14 -7 14
6 0 13 -4 16 -10z m-1115 -34 c0 -2 -8 -10 -17 -17 -16 -13 -17 -12 -4 4 13
16 21 21 21 13z m1300 -22 c0 -8 -5 -12 -10 -9 -6 4 -8 11 -5 16 9 14 15 11
15 -7z m-105 -4 c3 -6 -1 -7 -9 -4 -18 7 -21 14 -7 14 6 0 13 -4 16 -10z
m-1235 -3 c0 -2 -19 -21 -42 -42 l-43 -40 40 43 c36 39 45 47 45 39z m1180
-27 c12 -16 18 -30 13 -30 -5 0 -17 14 -26 30 -10 17 -16 30 -13 30 2 0 14
-13 26 -30z m541 7 c-10 -9 -11 -8 -5 6 3 10 9 15 12 12 3 -3 0 -11 -7 -18z
m-1450 -24 c-12 -20 -14 -14 -5 12 4 9 9 14 11 11 3 -2 0 -13 -6 -23z m873 -9
c7 -18 -9 -18 -27 1 -8 8 -17 12 -19 10 -3 -3 -5 1 -5 9 0 11 5 12 23 4 13 -6
25 -17 28 -24z m1709 -8 c4 -10 1 -13 -9 -9 -7 3 -14 9 -14 14 0 14 17 10 23
-5z m-2943 -30 c0 -2 -8 -10 -17 -17 -16 -13 -17 -12 -4 4 13 16 21 21 21 13z
m2944 -22 c4 -10 1 -14 -6 -12 -15 5 -23 28 -10 28 5 0 13 -7 16 -16z m-114
-34 c0 -5 -4 -10 -9 -10 -6 0 -13 5 -16 10 -3 6 1 10 9 10 9 0 16 -4 16 -10z
m-1024 -80 c8 0 14 9 14 20 0 15 7 20 26 20 14 0 23 -4 19 -10 -4 -6 5 -10 19
-10 20 0 26 -5 26 -22 0 -12 -3 -19 -6 -15 -3 3 -17 2 -30 -4 -21 -7 -26 -5
-34 14 -5 12 -9 17 -9 11 -1 -6 -12 -16 -26 -22 -19 -9 -23 -9 -19 2 3 8 1 17
-5 21 -6 3 -11 16 -10 28 0 19 2 19 11 -5 5 -16 16 -28 24 -28z m914 -25 c0
-8 -4 -15 -10 -15 -5 0 -10 7 -10 15 0 8 5 15 10 15 6 0 10 -7 10 -15z m10
-44 c0 -11 18 -34 41 -53 74 -60 89 -77 89 -98 0 -17 4 -20 20 -15 16 5 20 2
19 -17 0 -13 3 -42 6 -64 9 -51 -10 -114 -33 -114 -12 0 -13 3 -5 11 17 17
-16 102 -49 127 -9 7 -15 19 -12 27 4 8 1 15 -5 15 -6 0 -11 5 -11 10 0 6 -9
20 -20 32 -11 12 -20 30 -20 41 0 10 -9 30 -20 44 -21 27 -27 73 -10 73 6 0
10 -9 10 -19z m-949 -64 c-10 -9 -11 -8 -5 6 3 10 9 15 12 12 3 -3 0 -11 -7
-18z m-2201 -31 c0 -10 -34 2 -38 13 -3 10 0 10 17 2 11 -7 21 -13 21 -15z
m3707 -8 c-3 -8 -6 -5 -6 6 -1 11 2 17 5 13 3 -3 4 -12 1 -19z m-3684 -25 c-3
-7 -9 -10 -14 -7 -14 8 -11 21 5 21 8 0 12 -6 9 -14z m3705 -68 c-3 -3 -9 2
-12 12 -6 14 -5 15 5 6 7 -7 10 -15 7 -18z m-1771 -17 c-3 -8 -6 -5 -6 6 -1
11 2 17 5 13 3 -3 4 -12 1 -19z m1690 0 c-3 -8 -6 -5 -6 6 -1 11 2 17 5 13 3
-3 4 -12 1 -19z m306 -8 c3 -11 1 -20 -4 -20 -5 0 -9 9 -9 20 0 11 2 20 4 20
2 0 6 -9 9 -20z m-3933 6 c0 -3 -4 -8 -10 -11 -5 -3 -10 -1 -10 4 0 6 5 11 10
11 6 0 10 -2 10 -4z m1960 -51 c0 -5 -5 -3 -10 5 -5 8 -10 20 -10 25 0 6 5 3
10 -5 5 -8 10 -19 10 -25z m1677 -42 c-2 -16 -4 -5 -4 22 0 28 2 40 4 28 2
-13 2 -35 0 -50z m-1697 -18 c-7 -20 -14 -34 -17 -31 -3 2 0 21 7 41 7 20 14
34 17 31 3 -2 0 -21 -7 -41z m1657 3 c-3 -7 -5 -2 -5 12 0 14 2 19 5 13 2 -7
2 -19 0 -25z m-352 2 c3 -6 -1 -7 -9 -4 -18 7 -21 14 -7 14 6 0 13 -4 16 -10z
m-3352 -17 c-3 -7 -15 -13 -27 -12 -11 0 -15 3 -8 6 6 2 10 9 7 13 -3 5 3 8
14 7 11 0 17 -6 14 -14z m577 -23 c-8 -5 -19 -10 -25 -10 -5 0 -3 5 5 10 8 5
20 10 25 10 6 0 3 -5 -5 -10z m45 0 c-3 -5 -12 -10 -18 -10 -7 0 -6 4 3 10 19
12 23 12 15 0z m1396 -37 c-12 -20 -14 -14 -5 12 4 9 9 14 11 11 3 -2 0 -13
-6 -23z m1718 -23 c0 -9 -4 -8 -9 5 -5 11 -9 27 -9 35 0 9 4 8 9 -5 5 -11 9
-27 9 -35z m-1676 20 c-3 -12 -8 -19 -11 -16 -5 6 5 36 12 36 2 0 2 -9 -1 -20z
m1691 -56 c3 -8 2 -12 -4 -9 -6 3 -10 10 -10 16 0 14 7 11 14 -7z m-3919 -4
c-3 -5 -10 -10 -16 -10 -5 0 -9 5 -9 10 0 6 7 10 16 10 8 0 12 -4 9 -10z m566
-11 c11 -5 17 -14 14 -20 -4 -5 0 -9 7 -10 7 0 -2 -7 -19 -15 -18 -8 -33 -19
-33 -25 0 -8 -4 -9 -13 0 -8 6 -17 8 -20 4 -11 -11 -66 -13 -72 -3 -3 5 9 14
27 19 25 7 28 9 11 10 -33 1 -28 20 10 36 39 17 62 18 88 4z m3539 -211 c0
-14 -109 85 -140 127 -8 11 20 -11 63 -49 42 -38 77 -73 77 -78z"/>
<path d="M5030 1410 c0 -5 5 -10 10 -10 6 0 10 5 10 10 0 6 -4 10 -10 10 -5 0
-10 -4 -10 -10z"/>
<path d="M2280 3024 c0 -29 12 -41 50 -49 52 -11 119 -42 170 -79 70 -50 91
-51 35 -1 -57 50 -187 131 -227 141 -23 5 -28 3 -28 -12z"/>
<path d="M4699 2856 c-3 -3 -41 -7 -85 -8 -43 -1 -90 -8 -104 -15 -14 -7 -31
-13 -38 -13 -19 0 -75 -32 -85 -48 -5 -7 -20 -17 -33 -22 -13 -5 -24 -16 -24
-25 0 -13 -25 -21 -52 -16 -5 0 -8 -7 -8 -16 0 -19 -61 -83 -98 -102 -12 -7
-20 -16 -17 -21 3 -5 -5 -10 -17 -12 -30 -4 -34 -26 -6 -33 52 -13 268 0 268
16 0 5 8 6 18 2 11 -4 8 1 -8 15 l-25 21 27 1 c15 0 38 -4 52 -10 20 -7 27 -6
36 8 8 15 11 15 20 2 8 -13 10 -13 10 2 0 10 5 15 13 12 7 -2 21 3 32 11 19
16 19 16 -8 12 -21 -3 -26 -2 -18 6 7 7 57 12 119 14 59 1 114 3 122 4 8 1 37
1 63 1 56 -2 55 -22 -1 -22 -55 -1 -156 -25 -183 -43 -23 -17 -23 -17 21 -18
25 -1 48 -1 52 0 57 8 154 0 211 -18 37 -11 95 -23 130 -26 73 -7 163 -31 172
-45 3 -6 15 -10 26 -10 11 0 18 -4 15 -9 -11 -17 31 -41 88 -52 63 -11 85 -6
41 11 -39 15 -26 21 18 9 47 -13 64 -4 41 22 -35 39 -1 17 41 -25 33 -34 58
-49 102 -62 32 -9 70 -23 86 -31 l27 -14 -18 30 c-10 17 -30 40 -45 51 -14 11
-24 27 -21 34 3 8 -14 30 -38 51 -27 23 -32 31 -15 20 46 -27 41 -11 -7 29
-27 22 -43 42 -40 51 3 7 -9 27 -27 44 -18 18 -26 31 -18 31 10 0 11 2 2 8 -6
4 -28 7 -47 6 -27 -2 -39 4 -51 22 -10 15 -21 21 -32 17 -13 -5 -15 -2 -10 12
7 16 2 17 -43 13 -46 -5 -67 4 -37 15 9 4 8 8 -3 16 -12 9 -12 13 6 33 36 40
40 52 13 37 -13 -6 -30 -18 -38 -26 -7 -8 -19 -12 -27 -9 -7 3 -28 1 -45 -4
-18 -6 -35 -6 -38 -1 -10 14 -119 44 -146 39 -14 -3 -25 -2 -25 3 0 4 -17 10
-37 13 -60 9 -248 17 -254 12z m701 -176 c0 -5 -4 -10 -10 -10 -5 0 -10 5 -10
10 0 6 5 10 10 10 6 0 10 -4 10 -10z m76 -66 c18 -14 18 -14 -6 -3 -31 14 -36
19 -24 19 6 0 19 -7 30 -16z m55 -51 c13 -15 12 -15 -8 -4 -24 12 -29 21 -14
21 5 0 15 -7 22 -17z m-130 -20 c13 -16 12 -17 -3 -4 -10 7 -18 15 -18 17 0 8
8 3 21 -13z m-270 -10 c13 -16 12 -17 -3 -4 -17 13 -22 21 -14 21 2 0 10 -8
17 -17z"/>
<path d="M2913 2820 c-4 -23 -9 -28 -18 -20 -10 8 -14 2 -17 -25 -5 -40 1 -43
23 -12 17 23 35 87 25 87 -4 0 -9 -14 -13 -30z"/>
<path d="M2596 2818 c24 -39 94 -129 94 -120 0 11 -87 132 -96 132 -3 0 -2 -6
2 -12z"/>
<path d="M5345 2820 c-3 -5 -1 -10 4 -10 6 0 11 5 11 10 0 6 -2 10 -4 10 -3 0
-8 -4 -11 -10z"/>
<path d="M2930 2799 c0 -5 5 -7 10 -4 6 3 10 8 10 11 0 2 -4 4 -10 4 -5 0 -10
-5 -10 -11z"/>
<path d="M5525 2670 c27 -12 43 -12 25 0 -8 5 -22 9 -30 9 -10 0 -8 -3 5 -9z"/>
<path d="M0 2446 l0 -114 56 -32 c31 -17 66 -40 77 -51 12 -10 25 -19 30 -19
6 0 24 -10 41 -23 17 -13 61 -41 98 -62 78 -45 95 -72 102 -161 4 -57 5 -59
32 -59 34 0 30 -29 37 290 5 255 2 297 -22 293 -10 -2 -20 -20 -26 -45 -6 -23
-24 -56 -40 -73 -27 -29 -35 -31 -74 -27 -28 3 -50 12 -58 23 -37 51 -89 95
-127 106 -22 6 -57 24 -77 40 -20 15 -40 28 -43 28 -3 0 -6 -51 -6 -114z"/>
<path d="M6345 2526 c11 -8 16 -19 12 -30 -5 -12 0 -16 18 -16 18 0 25 5 25
20 0 21 -27 40 -56 40 -17 0 -16 -1 1 -14z"/>
<path d="M4094 2492 c3 -5 17 -12 32 -15 30 -5 20 8 -15 18 -15 4 -21 3 -17
-3z"/>
<path d="M5198 2473 c7 -3 16 -2 19 1 4 3 -2 6 -13 5 -11 0 -14 -3 -6 -6z"/>
<path d="M6335 2433 c5 -10 10 -34 13 -53 3 -19 12 -40 21 -47 14 -11 14 -14
2 -22 -11 -7 -12 -13 -4 -23 6 -7 9 -30 7 -50 -1 -21 3 -55 11 -75 13 -35 14
-26 14 125 l1 162 -36 0 c-31 0 -35 -3 -29 -17z"/>
<path d="M6256 2425 c11 -27 31 -47 38 -37 3 5 -6 20 -20 33 -22 21 -24 21
-18 4z"/>
<path d="M5596 2306 c3 -8 21 -25 39 -36 18 -11 39 -28 46 -37 12 -14 11 -15
-9 -9 -13 4 -43 9 -68 11 -25 1 -53 9 -62 17 -9 8 -25 18 -35 21 -10 4 -15 11
-12 17 3 5 -1 10 -9 10 -21 0 -21 -1 15 -46 17 -22 45 -68 61 -103 26 -58 63
-109 134 -181 13 -14 24 -30 24 -35 1 -6 18 -23 39 -40 22 -16 47 -43 57 -60
10 -16 23 -34 29 -40 7 -5 42 -54 79 -107 37 -54 72 -98 78 -98 6 0 7 7 3 18
-4 9 -11 31 -16 48 -5 18 -16 37 -24 44 -8 7 -12 16 -9 22 3 5 0 16 -7 24 -7
9 -14 23 -15 30 -1 8 -14 30 -28 49 -30 39 -18 51 27 28 16 -8 31 -12 34 -9
11 10 -23 79 -56 112 -38 37 -26 46 19 14 30 -22 77 -96 82 -132 2 -11 16 -34
31 -51 15 -16 25 -32 22 -35 -3 -3 -11 3 -19 13 -9 12 -15 15 -20 7 -4 -7 -2
-12 3 -12 6 0 11 -11 11 -25 0 -15 16 -43 38 -67 20 -24 29 -37 19 -29 -9 8
-20 11 -23 9 -3 -3 8 -15 24 -27 l30 -21 11 29 c17 39 4 80 -33 102 -30 18
-30 19 -6 17 14 -2 31 -11 38 -20 14 -19 38 -25 27 -8 -3 6 3 10 14 10 28 0
26 15 -5 37 -14 10 -38 28 -53 40 -16 12 -31 19 -35 16 -4 -4 -4 1 0 12 4 11
3 17 -1 13 -5 -5 -17 6 -27 22 -20 34 -23 44 -8 35 17 -10 11 11 -13 46 -12
19 -31 52 -41 73 -10 22 -28 49 -38 60 -11 12 -28 38 -39 58 -19 36 -91 103
-104 97 -4 -2 -13 7 -20 21 -8 14 -14 21 -15 16 0 -4 -12 0 -27 9 -14 10 -47
19 -72 20 -25 2 -56 6 -69 10 -18 6 -21 4 -16 -9z m482 -591 c-3 -3 -9 2 -12
12 -6 14 -5 15 5 6 7 -7 10 -15 7 -18z"/>
<path d="M5930 2258 c0 -12 37 -84 69 -135 23 -36 47 -59 83 -77 27 -14 51
-26 53 -26 6 0 -65 102 -93 134 -15 18 -35 43 -44 56 -26 37 -10 -5 19 -53 13
-21 23 -46 21 -55 -2 -12 -9 -6 -21 18 -10 19 -23 44 -30 55 -36 58 -57 89
-57 83z"/>
<path d="M4360 2237 c0 -14 29 -77 35 -77 4 0 3 10 -1 23 -7 24 -34 66 -34 54z"/>
<path d="M4465 2200 c-3 -5 -1 -10 4 -10 6 0 11 5 11 10 0 6 -2 10 -4 10 -3 0
-8 -4 -11 -10z"/>
<path d="M4866 2165 c-38 -30 -20 -38 21 -10 21 15 28 25 20 28 -7 2 -25 -5
-41 -18z"/>
<path d="M5028 2180 c19 -4 39 -13 45 -19 6 -6 16 -11 22 -11 5 0 -3 9 -20 20
-16 11 -41 19 -55 19 -21 -1 -19 -2 8 -9z"/>
<path d="M2691 2002 c-17 -31 -13 -40 5 -14 9 13 14 26 11 29 -3 2 -10 -4 -16
-15z"/>
<path d="M3755 1989 c-4 -6 -5 -12 -2 -15 2 -3 7 2 10 11 7 17 1 20 -8 4z"/>
<path d="M1930 1970 c0 -5 9 -10 21 -10 11 0 17 5 14 10 -3 6 -13 10 -21 10
-8 0 -14 -4 -14 -10z"/>
<path d="M3720 1965 c0 -8 -6 -12 -14 -9 -10 4 -16 -5 -21 -25 -4 -17 -10 -31
-13 -31 -4 0 -7 -11 -7 -25 0 -23 1 -24 13 -8 7 10 16 30 19 46 3 15 12 27 19
27 8 0 14 9 14 20 0 11 -2 20 -5 20 -3 0 -5 -7 -5 -15z"/>
<path d="M6070 1974 c0 -5 6 -18 14 -29 7 -11 14 -24 14 -28 0 -5 4 -12 8 -15
4 -4 4 -1 0 6 -9 15 6 16 22 0 7 -7 12 -8 12 -2 -1 12 -70 81 -70 68z"/>
<path d="M6140 1971 c0 -6 5 -11 11 -11 7 0 18 -8 26 -17 9 -12 13 -13 11 -4
-5 19 -48 48 -48 32z"/>
<path d="M1890 1946 c-6 -8 -18 -12 -26 -9 -17 6 -18 -9 -2 -25 17 -17 28 -15
21 4 -4 10 -1 15 8 14 8 -1 22 -2 33 -1 15 1 16 4 6 16 -16 19 -24 19 -40 1z"/>
<path d="M6168 1913 c13 -24 70 -78 76 -72 7 7 -43 68 -66 80 -17 9 -18 8 -10
-8z"/>
<path d="M1764 1905 c-4 -8 -15 -15 -25 -15 -10 0 -19 -4 -19 -8 0 -4 -16 -6
-35 -4 -22 3 -45 -2 -61 -13 -14 -9 -32 -14 -40 -11 -9 3 -14 -1 -14 -14 0
-21 -32 -58 -37 -43 -5 14 -74 7 -83 -7 -6 -9 -9 -9 -15 0 -5 8 -12 7 -24 -4
-13 -12 -25 -14 -49 -7 -29 9 -32 8 -32 -13 0 -35 -11 -38 -38 -14 -17 16 -26
19 -29 11 -3 -7 -13 -13 -24 -13 -13 0 -19 -7 -19 -24 0 -29 -18 -44 -26 -22
-3 9 -10 13 -15 10 -5 -3 -9 0 -9 5 0 6 -7 11 -15 11 -8 0 -15 -7 -15 -15 0
-8 -6 -15 -14 -15 -7 0 -22 -12 -31 -27 -17 -26 -18 -26 -26 -7 -4 12 -24 29
-46 39 -21 10 -42 24 -46 31 -11 19 -24 18 -24 -2 0 -9 11 -20 24 -25 27 -10
28 -18 10 -44 -10 -13 -16 -15 -21 -6 -11 17 -26 3 -19 -16 5 -13 2 -15 -12
-9 -11 4 -25 0 -35 -9 -12 -11 -20 -13 -25 -5 -10 15 -25 2 -25 -23 0 -16 -3
-18 -12 -9 -15 15 -48 16 -48 2 0 -5 -9 -10 -20 -10 -24 0 -26 -16 -4 -28 13
-7 10 -10 -16 -15 -18 -4 -37 -4 -44 0 -8 5 -7 2 1 -8 14 -17 6 -32 -22 -43
-11 -4 -16 -4 -12 0 4 4 -1 13 -11 20 -27 21 -37 16 -16 -8 10 -12 13 -18 6
-14 -6 4 -28 2 -47 -6 -28 -10 -40 -10 -55 0 -17 10 -20 10 -20 -3 0 -8 -7
-15 -16 -15 -8 0 -13 -4 -10 -9 10 -16 -18 -18 -42 -3 -12 8 -22 10 -22 5 0
-5 -14 -7 -31 -5 -29 4 -30 3 -20 -16 16 -31 13 -37 -8 -18 -14 13 -24 15 -38
8 -12 -7 -25 -7 -37 0 -14 8 -17 7 -12 -1 4 -6 2 -12 -3 -12 -6 -1 -17 -2 -23
-3 -7 -1 -12 -7 -11 -14 2 -8 -10 -12 -32 -12 -31 0 -35 -2 -26 -18 9 -16 6
-18 -21 -14 -24 4 -29 2 -23 -8 6 -10 4 -12 -8 -7 -24 9 -21 2 11 -29 l27 -27
-35 20 c-34 19 -70 21 -70 3 0 -4 12 -13 28 -19 15 -5 38 -20 52 -32 22 -19
25 -30 28 -103 3 -68 1 -84 -15 -101 -10 -12 -26 -19 -36 -17 -10 2 -17 -3
-17 -12 0 -9 -7 -16 -15 -16 -9 0 -15 -10 -15 -26 0 -16 -4 -23 -12 -18 -6 4
-8 3 -5 -3 4 -6 137 -13 339 -17 184 -3 421 -11 528 -16 135 -7 196 -7 200 1
4 5 29 14 56 18 l49 7 -35 9 c-19 5 -51 9 -70 10 -19 1 -46 5 -60 10 -22 7
-23 6 -12 -8 17 -20 -3 -27 -75 -25 -51 1 -58 6 -54 37 2 7 -2 10 -8 6 -6 -3
-11 -1 -11 6 0 7 -8 21 -17 32 -12 13 -18 36 -18 71 0 49 -1 51 -27 48 -16 -2
-30 3 -35 12 -7 12 -14 11 -48 -10 -22 -13 -39 -26 -38 -29 5 -11 -13 -40 -27
-43 -47 -11 -73 -10 -90 5 -10 9 -17 20 -14 25 3 5 12 4 20 -3 10 -8 14 -8 14
0 0 6 -3 11 -7 12 -5 0 -21 2 -38 4 -16 2 -25 1 -20 -3 6 -4 12 -16 14 -27 3
-19 2 -19 -17 -2 -11 11 -19 27 -17 37 3 17 1 17 -29 5 -20 -9 -55 -12 -90
-10 -44 4 -58 1 -62 -10 -11 -28 -23 -15 -20 21 3 29 12 43 47 71 24 19 43 39
42 44 -2 5 4 9 12 9 9 0 18 6 20 13 4 9 45 12 158 12 90 0 155 4 160 10 4 6
11 4 17 -5 9 -13 11 -13 21 0 8 11 12 12 16 2 2 -6 9 -10 14 -6 5 3 9 1 9 -5
0 -6 21 -4 53 6 60 18 165 25 173 12 3 -5 9 -7 14 -4 11 7 80 -56 80 -72 0
-17 47 -28 63 -15 12 11 52 20 93 21 22 1 42 41 21 41 -6 0 -7 3 -4 7 4 3 17
-2 29 -13 19 -17 21 -17 15 -1 -4 9 -2 17 3 17 6 0 10 6 10 14 0 7 7 27 15 42
8 16 15 39 15 51 0 12 4 24 9 27 12 8 48 83 56 119 4 15 11 27 16 27 5 0 6 7
3 15 -4 8 -1 15 6 15 6 0 8 5 4 11 -9 14 16 59 33 59 7 0 13 5 13 10 0 6 7 10
15 10 8 0 15 5 15 11 0 6 6 9 14 6 8 -3 16 -1 18 5 3 7 20 17 39 23 23 8 35
19 37 33 2 12 10 22 17 22 8 0 22 12 32 28 9 15 26 36 37 47 18 18 19 20 3 23
-18 4 -22 14 -10 25 3 4 12 2 20 -5 7 -6 16 -8 20 -4 10 10 -29 35 -55 36 -12
0 -25 -7 -28 -15z m-634 -414 c0 -5 12 -11 27 -13 30 -3 43 -23 16 -25 -10 0
-36 -4 -58 -8 -86 -14 -95 -14 -95 0 0 7 8 16 18 19 9 3 28 13 42 21 29 17 50
19 50 6z m-590 -391 c0 -5 -2 -10 -4 -10 -3 0 -8 5 -11 10 -3 6 -1 10 4 10 6
0 11 -4 11 -10z m-60 -40 c0 -5 -5 -10 -11 -10 -5 0 -7 5 -4 10 3 6 8 10 11
10 2 0 4 -4 4 -10z"/>
<path d="M2155 1889 c-4 -6 -5 -12 -2 -15 2 -3 7 2 10 11 7 17 1 20 -8 4z"/>
<path d="M5650 1899 c0 -13 30 -78 40 -84 5 -3 10 -3 10 2 0 10 -49 91 -50 82z"/>
<path d="M3410 1790 c19 -13 30 -13 30 0 0 6 -10 10 -22 10 -19 0 -20 -2 -8
-10z"/>
<path d="M625 1750 c4 -6 11 -8 16 -5 14 9 11 15 -7 15 -8 0 -12 -5 -9 -10z"/>
<path d="M724 1693 c14 -14 29 -24 32 -21 3 3 26 0 51 -8 64 -19 74 -7 17 22
-56 29 -64 29 -64 7 0 -14 -3 -13 -20 5 -12 12 -26 22 -32 22 -6 0 1 -12 16
-27z"/>
<path d="M640 1694 c0 -3 10 -9 23 -14 18 -7 14 -9 -23 -10 -53 -1 -38 -15 26
-26 30 -4 43 -2 54 10 8 10 9 20 4 25 -9 9 -84 22 -84 15z"/>
<path d="M845 1690 c3 -5 8 -10 11 -10 2 0 4 5 4 10 0 6 -5 10 -11 10 -5 0 -7
-4 -4 -10z"/>
<path d="M380 1670 c-7 -14 -7 -20 0 -20 5 0 10 5 10 10 0 6 6 10 14 10 8 0
18 5 21 10 3 6 -3 10 -14 10 -11 0 -25 -9 -31 -20z"/>
<path d="M500 1680 c-13 -9 -13 -10 0 -10 8 0 22 5 30 10 13 9 13 10 0 10 -8
0 -22 -5 -30 -10z"/>
<path d="M2660 1658 c-12 -22 -12 -22 6 -6 10 10 15 20 12 24 -4 3 -12 -5 -18
-18z"/>
<path d="M5783 1648 c4 -11 2 -18 -5 -18 -7 0 -8 -11 -3 -32 4 -18 6 -54 5
-81 -2 -64 28 -155 58 -175 29 -19 33 -14 16 23 -10 22 -13 24 -10 7 2 -13 0
-20 -6 -16 -5 4 -7 19 -4 35 3 18 1 28 -6 26 -6 -1 -13 4 -15 11 -3 6 1 12 7
12 8 0 7 9 -5 26 -12 19 -13 25 -3 22 7 -3 21 -27 31 -54 19 -51 40 -83 30
-45 -3 13 -1 21 6 21 7 0 9 5 6 10 -3 6 -2 10 3 10 5 0 20 -27 33 -60 13 -32
25 -57 27 -55 9 8 -28 96 -53 129 -15 20 -25 41 -22 48 2 7 -4 24 -13 38 -10
14 -25 42 -33 63 -17 39 -58 91 -44 55z"/>
<path d="M309 1646 c-2 -3 -37 -6 -77 -7 -39 -2 -72 -7 -72 -10 0 -4 37 -6 83
-3 101 4 107 5 107 16 0 8 -33 11 -41 4z"/>
<path d="M6024 1590 c2 -25 7 -54 12 -65 7 -18 6 -19 -11 -5 -17 14 -17 14 -4
-7 8 -13 17 -23 21 -23 4 0 10 -17 14 -37 8 -41 44 -116 71 -145 8 -10 16 -28
17 -40 0 -13 6 -23 13 -23 6 0 15 -3 19 -7 4 -5 11 -8 16 -8 5 0 -3 16 -18 35
-14 19 -22 35 -18 35 5 0 9 18 8 40 0 23 3 43 7 46 5 2 6 11 3 18 -3 8 -1 17
4 20 13 8 -4 85 -24 107 -8 8 -14 22 -14 30 0 8 -14 22 -30 31 -32 18 -35 17
-21 -10 16 -32 23 -74 10 -67 -6 4 -15 1 -20 -6 -7 -11 -9 -9 -9 6 0 11 -11
43 -25 70 l-25 50 4 -45z"/>
<path d="M6370 1596 c0 -2 7 -7 16 -10 8 -3 12 -2 9 4 -6 10 -25 14 -25 6z"/>
<path d="M5990 1560 c6 -11 13 -20 16 -20 2 0 0 9 -6 20 -6 11 -13 20 -16 20
-2 0 0 -9 6 -20z"/>
<path d="M698 1553 c7 -3 16 -2 19 1 4 3 -2 6 -13 5 -11 0 -14 -3 -6 -6z"/>
<path d="M4764 1539 c-3 -6 -1 -16 5 -22 8 -8 11 -5 11 11 0 24 -5 28 -16 11z"/>
<path d="M6356 1427 c3 -10 9 -15 12 -12 3 3 0 11 -7 18 -10 9 -11 8 -5 -6z"/>
<path d="M1645 1420 c3 -5 19 -10 36 -10 16 0 29 5 29 10 0 6 -16 10 -36 10
-21 0 -33 -4 -29 -10z"/>
<path d="M1726 1418 c7 -11 34 -10 34 1 0 6 -9 9 -19 8 -11 0 -17 -5 -15 -9z"/>
<path d="M6380 1341 c0 -5 5 -13 10 -16 6 -3 10 -2 10 4 0 5 -4 13 -10 16 -5
3 -10 2 -10 -4z"/>
<path d="M5866 1297 c3 -10 9 -15 12 -12 3 3 0 11 -7 18 -10 9 -11 8 -5 -6z"/>
<path d="M6370 1283 c1 -10 7 -29 15 -43 15 -25 15 -25 13 14 -3 39 -28 66
-28 29z"/>
<path d="M5876 1247 c3 -10 9 -15 12 -12 3 3 0 11 -7 18 -10 9 -11 8 -5 -6z"/>
<path d="M1470 1232 c0 -14 11 -21 26 -15 8 3 11 9 8 14 -7 11 -34 12 -34 1z"/>
<path d="M6155 1220 c3 -5 11 -10 16 -10 6 0 7 5 4 10 -3 6 -11 10 -16 10 -6
0 -7 -4 -4 -10z"/>
<path d="M1520 1210 c0 -5 5 -10 10 -10 6 0 10 5 10 10 0 6 -4 10 -10 10 -5 0
-10 -4 -10 -10z"/>
<path d="M503 1173 c-13 -2 -23 -9 -23 -14 0 -5 -5 -9 -11 -9 -5 0 -7 6 -3 13
4 6 1 5 -7 -3 -8 -8 -21 -20 -29 -27 -13 -10 -10 -12 17 -10 18 1 33 5 33 9 0
4 7 4 17 1 9 -4 14 -2 11 3 -4 5 6 10 20 11 55 3 72 8 69 18 -4 11 -58 16 -94
8z"/>
<path d="M622 1160 c-6 -11 -8 -21 -3 -25 5 -3 13 4 16 16 9 28 2 33 -13 9z"/>
<path d="M1404 1154 c-18 -14 -18 -15 4 -4 12 6 22 13 22 15 0 8 -5 6 -26 -11z"/>
<path d="M1034 1139 c-2 -4 0 -10 6 -14 11 -7 30 2 30 14 0 10 -29 10 -36 0z"/>
<path d="M1146 1085 c7 -17 20 -20 28 -6 3 5 -1 12 -10 15 -22 9 -24 8 -18 -9z"/>
<path d="M1005 1060 c-3 -5 -2 -10 4 -10 5 0 13 5 16 10 3 6 2 10 -4 10 -5 0
-13 -4 -16 -10z"/>
<path d="M6044 1003 c9 -17 21 -35 27 -39 13 -8 -1 21 -26 51 -15 19 -15 18
-1 -12z"/>
<path d="M5767 1007 c-5 -15 19 -52 26 -40 5 8 -9 53 -17 53 -2 0 -6 -6 -9
-13z"/>
<path d="M5967 989 l5 -32 -26 29 -25 29 9 -34 c13 -46 35 -77 59 -84 21 -5
21 -5 -1 26 l-21 32 29 -26 c16 -15 44 -30 63 -34 l34 -7 -43 51 c-43 51 -65
65 -53 34 4 -11 3 -14 -5 -9 -7 4 -12 16 -12 26 0 10 -4 21 -9 24 -5 4 -7 -8
-4 -25z"/>
<path d="M5890 1001 c0 -5 5 -13 10 -16 6 -3 10 -2 10 4 0 5 -4 13 -10 16 -5
3 -10 2 -10 -4z"/>
<path d="M6080 991 c0 -5 5 -13 10 -16 6 -3 10 -2 10 4 0 5 -4 13 -10 16 -5 3
-10 2 -10 -4z"/>
<path d="M968 983 c7 -3 16 -2 19 1 4 3 -2 6 -13 5 -11 0 -14 -3 -6 -6z"/>
<path d="M6140 973 c0 -13 29 -38 35 -31 3 3 -4 13 -15 23 -11 10 -20 13 -20
8z"/>
<path d="M6382 963 c-8 -14 -9 -24 -2 -28 12 -7 24 18 18 37 -3 8 -9 5 -16 -9z"/>
<path d="M6240 967 c0 -2 15 -14 33 -27 l32 -23 -24 26 c-21 23 -41 35 -41 24z"/>
<path d="M6065 940 c10 -11 20 -20 23 -20 3 0 -3 9 -13 20 -10 11 -20 20 -23
20 -3 0 3 -9 13 -20z"/>
<path d="M6198 944 c5 -10 24 -18 43 -19 32 -2 32 -2 9 7 -14 6 -33 14 -43 20
-16 8 -17 7 -9 -8z"/>
<path d="M5750 932 c6 -13 14 -21 18 -18 3 4 -2 14 -12 24 -18 16 -18 16 -6
-6z"/>
<path d="M6100 935 c7 -8 17 -15 22 -15 5 0 3 7 -6 15 -8 8 -18 15 -22 15 -3
0 -1 -7 6 -15z"/>
<path d="M6248 893 c7 -3 16 -2 19 1 4 3 -2 6 -13 5 -11 0 -14 -3 -6 -6z"/>
</g>
</svg>
